# File created by Blade
# Date/Time:  Wed Jan 21 19:14:05 2015
#---------------------------------------------------------
:version 1.10
:name HOM
:units
  mass 1.0
  length 1.000000
  angle deg
:documentation
     Acclaim Skeleton File
:root
   axis xyz
   order TX TY TZ RX RY RZ
   position 0.000000 0.000000 0.000000
   orientation 0 0 0
:bonedata
   begin
      id 1
      name RightUpLeg_dum
      direction -1.000000 0.000000 0.000000
      length 3.693983
      axis 0.0 0.0 0.0 xyz
   end
   begin
      id 2
      name LeftUpLeg_dum
      direction 1.000000 0.000000 0.000000
      length 3.693983
      axis 0.0 0.0 0.0 xyz
   end
   begin
      id 3
      name Spine_dum
      direction 0.000000 1.000000 0.000000
      length 2.392956
      axis 0.0 0.0 0.0 xyz
   end
   begin
      id 4
      name RightUpLeg
      direction 0.000000 -1.000000 0.000000
      length 15.795667
      axis 0.0 0.0 0.0 xyz
      dof rx ry rz
   end
   begin
      id 5
      name RightLeg
      direction 0.000000 -1.000000 0.000000
      length 14.766989
      axis 0.0 0.0 0.0 xyz
      dof rx ry rz
   end
   begin
      id 6
      name RightFoot
      direction 0.000000 -0.258819 0.965926
      length 4.962790
      axis 15.0 0.0 0.0 xyz
      dof rx ry rz
   end
   begin
      id 7
      name RightToeBase
      direction 0.000000 0.000000 1.000000
      length 2.952750
      axis 0.0 0.0 0.0 xyz
      dof rx ry rz
   end
   begin
      id 8
      name LeftUpLeg
      direction 0.000000 -1.000000 0.000000
      length 15.795667
      axis 0.0 0.0 0.0 xyz
      dof rx ry rz
   end
   begin
      id 9
      name LeftLeg
      direction 0.000000 -1.000000 0.000000
      length 14.766989
      axis 0.0 0.0 0.0 xyz
      dof rx ry rz
   end
   begin
      id 10
      name LeftFoot
      direction 0.000000 -0.258819 0.965926
      length 4.962790
      axis 15.0 0.0 0.0 xyz
      dof rx ry rz
   end
   begin
      id 11
      name LeftToeBase
      direction 0.000000 0.000000 1.000000
      length 2.952750
      axis 0.0 0.0 0.0 xyz
      dof rx ry rz
   end
   begin
      id 12
      name Spine
      direction 0.000000 1.000000 0.000000
      length 0.000000
      axis 0.0 0.0 0.0 xyz
      dof rx ry rz
   end
   begin
      id 13
      name Spine_dum1
      direction 0.000000 1.000000 0.000000
      length 13.207411
      axis 0.0 0.0 0.0 xyz
   end
   begin
      id 14
      name Spine_dum2
      direction 0.000000 1.000000 0.000000
      length 13.207411
      axis 0.0 0.0 0.0 xyz
   end
   begin
      id 15
      name Spine_dum3
      direction 0.000000 1.000000 0.000000
      length 19.250100
      axis 0.0 0.0 0.0 xyz
   end
   begin
      id 16
      name RightShoulder
      direction -1.000000 0.000000 0.000000
      length 8.140465
      axis 0.0 0.0 90.0 xyz
      dof rx ry rz
   end
   begin
      id 17
      name RightArm
      direction -1.000000 0.000000 0.000000
      length 10.649840
      axis 0.0 0.0 90.0 xyz
      dof rx ry rz
   end
   begin
      id 18
      name RightForeArm
      direction -1.000000 0.000000 0.000000
      length 8.304624
      axis 0.0 0.0 90.0 xyz
      dof ry rz rx
   end
   begin
      id 19
      name RightHand
      direction -1.000000 0.000000 0.000000
      length 0.000000
      axis 0.0 0.0 90.0 xyz
      dof rx ry rz
   end
   begin
      id 20
      name RightHand_dum1
      direction -1.000000 0.000000 0.000000
      length 3.937000
      axis 0.0 0.0 90.0 xyz
   end
   begin
      id 21
      name RightHand_dum2
      direction 0.000000 0.000000 0.000000
      length 0.000000
      axis 0.0 0.0 90.0 xyz
   end
   begin
      id 22
      name RightHandThumb1
      direction 0.000000 0.000000 1.000000
      length 3.937000
      axis 0.0 0.0 90.0 xyz
      dof rx rz ry
   end
   begin
      id 23
      name LeftShoulder
      direction 1.000000 0.000000 0.000000
      length 8.140465
      axis 0.0 0.0 -90.0 xyz
      dof rx ry rz
   end
   begin
      id 24
      name LeftArm
      direction 1.000000 0.000000 0.000000
      length 10.649840
      axis 0.0 0.0 -90.0 xyz
      dof rx ry rz
   end
   begin
      id 25
      name LeftForeArm
      direction 1.000000 0.000000 0.000000
      length 8.304624
      axis 0.0 0.0 -90.0 xyz
      dof ry rz rx
   end
   begin
      id 26
      name LeftHand
      direction 1.000000 0.000000 0.000000
      length 0.000000
      axis 0.0 0.0 -90.0 xyz
      dof rx ry rz
   end
   begin
      id 27
      name LeftHand_dum1
      direction 1.000000 0.000000 0.000000
      length 3.937000
      axis 0.0 0.0 -90.0 xyz
   end
   begin
      id 28
      name LeftHand_dum2
      direction 0.000000 0.000000 0.000000
      length 0.000000
      axis 0.0 0.0 -90.0 xyz
   end
   begin
      id 29
      name LeftHandThumb1
      direction 0.000000 0.000000 1.000000
      length 3.937000
      axis 0.0 0.0 -90.0 xyz
      dof rx rz ry
   end
   begin
      id 30
      name Head
      direction 0.000000 1.000000 0.000000
      length 4.527550
      axis 0.0 0.0 0.0 xyz
      dof rx ry rz
   end
:hierarchy
   begin
      root RightUpLeg_dum LeftUpLeg_dum Spine_dum
      RightUpLeg_dum RightUpLeg
      LeftUpLeg_dum LeftUpLeg
      Spine_dum Spine
      RightUpLeg RightLeg
      RightLeg RightFoot
      RightFoot RightToeBase
      LeftUpLeg LeftLeg
      LeftLeg LeftFoot
      LeftFoot LeftToeBase
      Spine Spine_dum1 Spine_dum2 Spine_dum3
      Spine_dum1 RightShoulder
      Spine_dum2 LeftShoulder
      Spine_dum3 Head
      RightShoulder RightArm
      RightArm RightForeArm
      RightForeArm RightHand
      RightHand RightHand_dum1 RightHand_dum2
      RightHand_dum2 RightHandThumb1
      LeftShoulder LeftArm
      LeftArm LeftForeArm
      LeftForeArm LeftHand
      LeftHand LeftHand_dum1 LeftHand_dum2
      LeftHand_dum2 LeftHandThumb1
   end

# File created by Blade
# Date/Time:  Wed Jan 21 19:13:57 2015
# Frame Rate: 120.000 fps
#------------------------------------------------------
:FULLY-SPECIFIED
:DEGREES
543
root -6.956178 34.298780 -0.536275 35.235062 51.712966 -100.335517
RightUpLeg 9.587174 -5.611969 -23.850998
RightLeg 61.946796 -0.000000 -0.000000
RightFoot 25.513978 -24.804353 23.644841
RightToeBase 42.040068 -0.000000 -0.000000
LeftUpLeg -140.358709 35.156485 -24.456812
LeftLeg -9.499156 -0.000000 0.000000
LeftFoot -1.581771 -1.175955 -7.824383
LeftToeBase 8.692332 -0.000000 -0.000000
Spine -74.571838 -3.361064 23.407769
RightShoulder -33.862542 2.156188 -34.487382
RightArm -17.854948 -32.831282 49.684142
RightForeArm -19.851168 0.000000 3.693682
RightHand 8.956794 -0.000000 21.691536
RightHandThumb1 -24.326973 -0.000000 -32.862282
LeftShoulder -21.082921 -9.925321 53.330257
LeftArm 47.194228 -27.971178 -19.706449
LeftForeArm 32.112432 -0.000000 20.983681
LeftHand -28.321336 -0.000000 22.237772
LeftHandThumb1 -26.253704 0.000000 33.147579
Head -34.288823 26.693323 38.636761
544
root -6.929211 34.272230 -0.519064 35.043896 51.745495 -100.567285
RightUpLeg 9.419593 -5.693975 -23.760717
RightLeg 62.043502 -0.000000 -0.000000
RightFoot 25.287317 -24.821714 23.657058
RightToeBase 42.098836 -0.000000 -0.000000
LeftUpLeg -140.223228 35.205408 -24.328448
LeftLeg -9.759284 -0.000000 0.000000
LeftFoot -1.609944 -1.034341 -7.448939
LeftToeBase 8.528916 -0.000000 -0.000000
Spine -74.644695 -3.340081 23.505811
RightShoulder -33.883425 2.215722 -34.445804
RightArm -17.810648 -32.758587 49.672792
RightForeArm -20.036236 -0.000000 3.626107
RightHand 8.860705 -0.000000 21.650496
RightHandThumb1 -24.326973 -0.000000 -32.862282
LeftShoulder -21.144230 -10.009938 53.475935
LeftArm 47.210287 -28.537065 -19.978116
LeftForeArm 32.522867 0.000000 21.701597
LeftHand -28.487623 -0.000000 22.252241
LeftHandThumb1 -26.253704 0.000000 33.147579
Head -34.283549 26.654810 38.737257
545
root -6.909381 34.253832 -0.509270 34.679568 51.764465 -100.882136
RightUpLeg 9.307804 -5.732160 -23.677521
RightLeg 62.195843 -0.000000 -0.000000
RightFoot 25.199220 -24.833766 23.662764
RightToeBase 42.124820 -0.000000 -0.000000
LeftUpLeg -140.108062 35.219184 -24.239303
LeftLeg -9.944412 -0.000000 0.000000
LeftFoot -1.639707 -1.177133 -7.487617
LeftToeBase 8.642502 -0.000000 -0.000000
Spine -74.527944 -3.319342 23.570075
RightShoulder -34.009719 2.326914 -34.386457
RightArm -17.773185 -32.667088 49.634116
RightForeArm -20.209600 -0.000000 3.529579
RightHand 8.871187 -0.000000 21.515776
RightHandThumb1 -24.326973 -0.000000 -32.862282
LeftShoulder -21.237903 -10.165476 53.592242
LeftArm 47.190025 -28.953808 -19.974540
LeftForeArm 32.649613 -0.000000 22.244860
LeftHand -28.587529 -0.000000 22.305228
LeftHandThumb1 -26.253704 0.000000 33.147579
Head -34.453609 26.636690 38.815502
546
root -6.886245 34.237900 -0.489733 34.482029 51.842755 -101.084953
RightUpLeg 9.197356 -5.903403 -23.608829
RightLeg 62.314319 -0.000000 -0.000000
RightFoot 25.205546 -24.891790 23.748269
RightToeBase 42.050818 -0.000000 -0.000000
LeftUpLeg -139.985188 35.176776 -24.197743
LeftLeg -10.213267 -0.000000 0.000000
LeftFoot -1.565115 -1.343026 -7.784619
LeftToeBase 8.794289 -0.000000 -0.000000
Spine -74.577734 -3.372132 23.597374
RightShoulder -34.054682 2.324570 -34.287274
RightArm -17.778688 -32.499682 49.609653
RightForeArm -20.361620 -0.000000 3.504221
RightHand 8.876568 0.000000 21.441861
RightHandThumb1 -24.326973 -0.000000 -32.862282
LeftShoulder -21.262764 -10.284481 53.737993
LeftArm 47.230155 -29.352193 -19.970741
LeftForeArm 32.794409 -0.000000 22.592319
LeftHand -28.751697 -0.000000 22.233301
LeftHandThumb1 -26.253704 0.000000 33.147579
Head -34.499078 26.599429 38.997287
547
root -6.869187 34.225770 -0.471442 34.271817 51.982082 -101.311440
RightUpLeg 9.142687 -6.184557 -23.552009
RightLeg 62.371380 -0.000000 -0.000000
RightFoot 25.287143 -24.908395 23.775360
RightToeBase 42.098481 -0.000000 -0.000000
LeftUpLeg -139.929029 35.054161 -24.141301
LeftLeg -10.383672 -0.000000 0.000000
LeftFoot -1.490451 -1.592610 -8.157141
LeftToeBase 9.033677 -0.000000 -0.000000
Spine -74.632985 -3.448060 23.624121
RightShoulder -34.145576 2.333539 -34.270561
RightArm -17.832378 -32.513687 49.703257
RightForeArm -20.410393 -0.000000 3.370098
RightHand 8.905726 0.000000 21.129003
RightHandThumb1 -24.326973 -0.000000 -32.862282
LeftShoulder -21.234337 -10.473693 53.873564
LeftArm 47.170110 -29.651212 -19.767676
LeftForeArm 32.825541 -0.000000 22.756141
LeftHand -28.705857 -0.000000 22.259623
LeftHandThumb1 -26.253704 0.000000 33.147579
Head -34.566094 26.523908 39.144629
